<?xml version="1.0" encoding="utf-8"?>
<!-- Generator: Adobe Illustrator 24.2.3, SVG Export Plug-In . SVG Version: 6.00 Build 0)  -->
<svg version="1.1" xmlns="http://www.w3.org/2000/svg" xmlns:xlink="http://www.w3.org/1999/xlink" x="0px" y="0px"
	 viewBox="0 0 24 24" style="enable-background:new 0 0 24 24;" xml:space="preserve">
<style type="text/css">
	.st0{display:none;}
	.st1{display:inline;}
	.st2{fill:#9E260B;}
	.st3{fill:#0068BF;}
	.st4{fill:#F1BB00;}
	.st5{fill:#272823;}
</style>
<g id="Layer_1" class="st0">
	<g id="Group_385" transform="translate(350.438 52.553)" class="st1">
		<g id="Group_375">
			<g id="Group_374">
				<g id="Group_373">
					<ellipse id="Ellipse_27" class="st2" cx="-338.4" cy="-46.5" rx="1.6" ry="5.1"/>
				</g>
			</g>
		</g>
		<g id="Group_378">
			<g id="Group_377">
				<g id="Group_376">
					<ellipse id="Ellipse_28" class="st3" cx="-344.4" cy="-40.6" rx="5.1" ry="1.6"/>
				</g>
			</g>
		</g>
		<g id="Group_381">
			<g id="Group_380">
				<g id="Group_379">
					<ellipse id="Ellipse_29" class="st4" cx="-338.4" cy="-34.6" rx="1.6" ry="5.1"/>
				</g>
			</g>
		</g>
		<g id="Group_384">
			<g id="Group_383">
				<g id="Group_382">
					<ellipse id="Ellipse_30" class="st5" cx="-332.5" cy="-40.6" rx="5.1" ry="1.6"/>
				</g>
			</g>
		</g>
	</g>
</g>
<g id="Layer_2" class="st0">
	<g id="Group_372" transform="translate(447.59 -997.907)" class="st1">
		<g id="Group_360">
			<g id="Group_359">
				<path id="Path_221" class="st3" d="M-435.6,1019c-2.6,0-4.7-2.1-4.7-4.7c0-1.4,0.7-2.8,1.8-3.7l0.6,0.7
					c-0.9,0.7-1.4,1.8-1.4,2.9c0,2,1.7,3.7,3.7,3.7c2,0,3.7-1.7,3.7-3.7c0-1.1-0.5-2.2-1.4-2.9l0.6-0.8c1.1,0.9,1.8,2.2,1.8,3.7
					C-430.9,1016.9-433,1019-435.6,1019z"/>
			</g>
		</g>
		<g id="Group_362">
			<g id="Group_361">
				<path id="Path_222" class="st3" d="M-435.6,1020.9c-3.8,0-6.8-3.1-6.8-6.8c0-2.1,0.9-4,2.5-5.3v-9.9h0.6v10
					c0,0.1-0.1,0.2-0.2,0.3c-1.5,1.2-2.4,3-2.3,4.9c0,3.4,2.8,6.2,6.2,6.2c3.4,0,6.2-2.8,6.2-6.2c0-1.9-0.9-3.7-2.3-4.9
					c-0.1-0.1-0.2-0.2-0.2-0.3v-10h0.6v9.8c1.6,1.3,2.5,3.2,2.5,5.3C-428.7,1017.8-431.8,1020.9-435.6,1020.9z"/>
			</g>
		</g>
		<g id="Group_365">
			<g id="Group_364">
				<g id="Group_363">
					<rect id="Rectangle_118" x="-438.1" y="998.9" class="st4" width="0.6" height="10.7"/>
				</g>
			</g>
		</g>
		<g id="Group_368">
			<g id="Group_367">
				<g id="Group_366">
					<rect id="Rectangle_119" x="-435.8" y="998.9" class="st4" width="0.6" height="5.5"/>
				</g>
			</g>
		</g>
		<g id="Group_371">
			<g id="Group_370">
				<g id="Group_369">
					<rect id="Rectangle_120" x="-430" y="998.9" class="st4" width="0.6" height="2.2"/>
				</g>
			</g>
		</g>
	</g>
</g>
<g id="Layer_3" class="st0">
	<g id="Group_358" transform="translate(1161.059 -479.905)" class="st1">
		<g id="Group_347">
			<g id="Group_346">
				<path id="Path_215" class="st3" d="M-1149,502.9l5.5-5.5h-11L-1149,502.9z"/>
			</g>
		</g>
		<g id="Group_349">
			<g id="Group_348">
				<path id="Path_216" class="st4" d="M-1154.5,497.4h11l-5.5-5.5L-1154.5,497.4z"/>
			</g>
		</g>
		<g id="Group_351">
			<g id="Group_350">
				<path id="Path_217" class="st3" d="M-1149,491.9l5.5-5.5h-11L-1149,491.9z"/>
			</g>
		</g>
		<g id="Group_353">
			<g id="Group_352">
				<path id="Path_218" class="st2" d="M-1160.1,486.4v11l5.5-5.5L-1160.1,486.4z"/>
			</g>
		</g>
		<g id="Group_355">
			<g id="Group_354">
				<path id="Path_219" class="st2" d="M-1138,497.4v-11l-5.5,5.5L-1138,497.4z"/>
			</g>
		</g>
		<g id="Group_357">
			<g id="Group_356">
				<path id="Path_220" class="st4" d="M-1154.5,486.4h11l-5.5-5.5L-1154.5,486.4z"/>
			</g>
		</g>
	</g>
</g>
<g id="Layer_4" class="st0">
	<g id="Group_345" transform="translate(1034.022 -988)" class="st1">
		<g id="Group_340">
			<g id="Group_339">
				<path id="Path_213" class="st4" d="M-1022,990.9c-6.1,0-11,4.9-11,11h22C-1011,995.8-1015.9,990.9-1022,990.9z"/>
			</g>
		</g>
		<g id="Group_342">
			<g id="Group_341">
				<circle id="Ellipse_26" class="st2" cx="-1022" cy="1001.9" r="4.5"/>
			</g>
		</g>
		<g id="Group_344">
			<g id="Group_343">
				<path id="Path_214" class="st2" d="M-1015.4,1001.9L-1015.4,1001.9c0,3.7-3,6.7-6.7,6.7l0,0c-3.7,0-6.7-3-6.7-6.7c0,0,0,0,0,0
					h-0.6c0,4,3.3,7.3,7.3,7.3h0c4,0,7.3-3.3,7.3-7.3v0H-1015.4z"/>
			</g>
		</g>
	</g>
</g>
<g id="Layer_5" class="st0">
	<g id="Group_426" transform="translate(648.796 -805.777)" class="st1">
		<g id="Group_427">
			<g id="Group_426-2">
				<path id="Path_223" class="st3" d="M-637.3,806.8c0,6.4,5.2,11.5,11.5,11.5c0,0,0,0,0,0l0,0V812c0-2.9-2.3-5.2-5.2-5.2
					c0,0,0,0,0,0H-637.3z"/>
			</g>
		</g>
		<g id="Group_429">
			<g id="Group_428">
				<path id="Path_224" class="st3" d="M-647.8,818.3c6.4,0,11.5-5.2,11.5-11.5h-6.3c-2.9,0-5.2,2.3-5.2,5.2V818.3z"/>
			</g>
		</g>
		<g id="Group_431">
			<g id="Group_430">
				<path id="Path_225" class="st3" d="M-636.3,828.8c0-6.4-5.2-11.5-11.5-11.5l0,0v6.3c0,2.9,2.3,5.2,5.2,5.2H-636.3z"/>
			</g>
		</g>
		<g id="Group_433">
			<g id="Group_432">
				<path id="Path_226" class="st3" d="M-625.8,817.3c-6.4,0-11.5,5.2-11.5,11.5h6.3c2.9,0,5.2-2.3,5.2-5.2c0,0,0,0,0,0V817.3z"/>
			</g>
		</g>
		<g id="Group_435">
			<g id="Group_434">
				<circle id="Ellipse_31" class="st4" cx="-636.8" cy="817.8" r="2.7"/>
			</g>
		</g>
	</g>
</g>
<g id="Layer_6" class="st0">
	<g id="Group_424" transform="translate(396.588 -1552.961)" class="st1">
		<g id="Group_387">
			<g id="Group_386">
				<rect id="Rectangle_121" x="-395.6" y="1554" class="st3" width="3.1" height="3.1"/>
			</g>
		</g>
		<g id="Group_389">
			<g id="Group_388">
				<rect id="Rectangle_122" x="-392.4" y="1557.1" class="st3" width="3.1" height="3.1"/>
			</g>
		</g>
		<g id="Group_391">
			<g id="Group_390">
				<rect id="Rectangle_123" x="-395.6" y="1560.2" class="st2" width="3.1" height="3.1"/>
			</g>
		</g>
		<g id="Group_393">
			<g id="Group_392">
				<rect id="Rectangle_124" x="-392.4" y="1563.4" class="st3" width="3.1" height="3.1"/>
			</g>
		</g>
		<g id="Group_395">
			<g id="Group_394">
				<rect id="Rectangle_125" x="-386.2" y="1563.4" class="st3" width="3.1" height="3.1"/>
			</g>
		</g>
		<g id="Group_397">
			<g id="Group_396">
				<rect id="Rectangle_126" x="-395.6" y="1566.5" class="st3" width="3.1" height="3.1"/>
			</g>
		</g>
		<g id="Group_399">
			<g id="Group_398">
				<rect id="Rectangle_127" x="-389.3" y="1560.2" class="st3" width="3.1" height="3.1"/>
			</g>
		</g>
		<g id="Group_401">
			<g id="Group_400">
				<rect id="Rectangle_128" x="-389.3" y="1566.5" class="st3" width="3.1" height="3.1"/>
			</g>
		</g>
		<g id="Group_403">
			<g id="Group_402">
				<rect id="Rectangle_129" x="-392.4" y="1569.7" class="st2" width="3.1" height="3.1"/>
			</g>
		</g>
		<g id="Group_405">
			<g id="Group_404">
				<rect id="Rectangle_130" x="-395.6" y="1572.8" class="st3" width="3.1" height="3.1"/>
			</g>
		</g>
		<g id="Group_407">
			<g id="Group_406">
				<rect id="Rectangle_131" x="-376.7" y="1554" class="st2" width="3.1" height="3.1"/>
			</g>
		</g>
		<g id="Group_409">
			<g id="Group_408">
				<rect id="Rectangle_132" x="-379.9" y="1557.1" class="st3" width="3.1" height="3.1"/>
			</g>
		</g>
		<g id="Group_411">
			<g id="Group_410">
				<rect id="Rectangle_133" x="-376.7" y="1560.2" class="st3" width="3.1" height="3.1"/>
			</g>
		</g>
		<g id="Group_413">
			<g id="Group_412">
				<rect id="Rectangle_134" x="-379.9" y="1563.4" class="st3" width="3.1" height="3.1"/>
			</g>
		</g>
		<g id="Group_415">
			<g id="Group_414">
				<rect id="Rectangle_135" x="-376.7" y="1566.5" class="st3" width="3.1" height="3.1"/>
			</g>
		</g>
		<g id="Group_417">
			<g id="Group_416">
				<rect id="Rectangle_136" x="-383" y="1560.2" class="st2" width="3.1" height="3.1"/>
			</g>
		</g>
		<g id="Group_419">
			<g id="Group_418">
				<rect id="Rectangle_137" x="-383" y="1566.5" class="st3" width="3.1" height="3.1"/>
			</g>
		</g>
		<g id="Group_421">
			<g id="Group_420">
				<rect id="Rectangle_138" x="-379.9" y="1569.7" class="st2" width="3.1" height="3.1"/>
			</g>
		</g>
		<g id="Group_423">
			<g id="Group_422">
				<rect id="Rectangle_139" x="-376.7" y="1572.8" class="st3" width="3.1" height="3.1"/>
			</g>
		</g>
	</g>
</g>
<g id="Layer_7" class="st0">
	<g id="Group_327" transform="translate(755.893 -715.654)" class="st1">
		<g id="Group_306">
			<g id="Group_305">
				<path id="Path_198" class="st3" d="M-741.7,738.7l-2.2-3.7l-2.2,3.7H-741.7z"/>
			</g>
		</g>
		<g id="Group_308">
			<g id="Group_307">
				<path id="Path_199" class="st2" d="M-741.7,735l-2.2-3.7l-2.2,3.7H-741.7z"/>
			</g>
		</g>
		<g id="Group_310">
			<g id="Group_309">
				<path id="Path_200" class="st2" d="M-746.1,738.7l-2.2-3.7l-2.2,3.7H-746.1z"/>
			</g>
		</g>
		<g id="Group_312">
			<g id="Group_311">
				<path id="Path_201" class="st3" d="M-750.5,738.7l-2.2-3.7l-2.2,3.7H-750.5z"/>
			</g>
		</g>
		<g id="Group_314">
			<g id="Group_313">
				<path id="Path_202" class="st3" d="M-746.1,735l-2.2-3.7l-2.2,3.7H-746.1z"/>
			</g>
		</g>
		<g id="Group_316">
			<g id="Group_315">
				<path id="Path_203" class="st2" d="M-737.3,738.7l-2.2-3.7l-2.2,3.7H-737.3z"/>
			</g>
		</g>
		<g id="Group_318">
			<g id="Group_317">
				<path id="Path_204" class="st3" d="M-732.9,738.7l-2.2-3.7l-2.2,3.7H-732.9z"/>
			</g>
		</g>
		<g id="Group_320">
			<g id="Group_319">
				<path id="Path_205" class="st3" d="M-737.3,735l-2.2-3.7l-2.2,3.7H-737.3z"/>
			</g>
		</g>
		<g id="Group_322">
			<g id="Group_321">
				<path id="Path_206" class="st3" d="M-741.7,731.3l-2.2-3.7l-2.2,3.7H-741.7z"/>
			</g>
		</g>
		<g id="Group_324">
			<g id="Group_323">
				<path id="Path_207" class="st4" d="M-750.5,716.6l6.6,11l6.6-11H-750.5z"/>
			</g>
		</g>
		<g id="Group_326">
			<g id="Group_325">
				<path id="Path_208" class="st3" d="M-746.9,716.6l3,5.1l3-5.1H-746.9z"/>
			</g>
		</g>
	</g>
</g>
<g id="Layer_8" class="st0">
	<g id="Group_304" transform="translate(565.478 -446.972)" class="st1">
		<g id="Group_290">
			<g id="Group_289">
				<rect id="Rectangle_111" x="-564.5" y="448" class="st3" width="3.7" height="22"/>
			</g>
		</g>
		<g id="Group_293">
			<g id="Group_292">
				<g id="Group_291">
					<rect id="Rectangle_112" x="-546.2" y="448" class="st2" width="3.7" height="22"/>
				</g>
			</g>
		</g>
		<g id="Group_295">
			<g id="Group_294">
				<rect id="Rectangle_113" x="-555.3" y="455.5" class="st5" width="3.7" height="6.9"/>
			</g>
		</g>
		<g id="Group_297">
			<g id="Group_296">
				<rect id="Rectangle_114" x="-560.1" y="450.9" class="st4" width="1.5" height="16.1"/>
			</g>
		</g>
		<g id="Group_299">
			<g id="Group_298">
				<rect id="Rectangle_115" x="-557.8" y="453.9" class="st4" width="0.8" height="10.2"/>
			</g>
		</g>
		<g id="Group_301">
			<g id="Group_300">
				<rect id="Rectangle_116" x="-548.5" y="450.9" class="st4" width="1.5" height="16.1"/>
			</g>
		</g>
		<g id="Group_303">
			<g id="Group_302">
				<rect id="Rectangle_117" x="-550" y="453.9" class="st4" width="0.8" height="10.2"/>
			</g>
		</g>
	</g>
</g>
<g id="Layer_9">
	<g id="Group_288" transform="translate(1303.505 12)">
		<g id="Group_280" transform="translate(-1291.505 -12)">
			<g id="Group_279">
				<g id="Group_278">
					<path id="Path_194" class="st5" d="M0,1L0,1v11h11C4.9,12,0,7.1,0,1z"/>
				</g>
			</g>
		</g>
		<g id="Group_282" transform="translate(-1303.505 -12)">
			<g id="Group_281">
				<path id="Path_195" class="st3" d="M1,12h11V1C12,7.1,7.1,12,1,12z"/>
			</g>
		</g>
		<g id="Group_284" transform="translate(-1303.505 0)">
			<g id="Group_283">
				<path id="Path_196" class="st4" d="M12,11L12,11V0H1C7.1,0,12,4.9,12,11z"/>
			</g>
		</g>
		<g id="Group_287" transform="translate(-1291.505 0)">
			<g id="Group_286">
				<g id="Group_285">
					<path id="Path_197" class="st2" d="M11,0H0v11C0,4.9,4.9,0,11,0z"/>
				</g>
			</g>
		</g>
	</g>
</g>
</svg>
