<?xml version="1.0" encoding="utf-8"?>
<!-- Generator: Adobe Illustrator 24.2.3, SVG Export Plug-In . SVG Version: 6.00 Build 0)  -->
<svg version="1.1" xmlns="http://www.w3.org/2000/svg" xmlns:xlink="http://www.w3.org/1999/xlink" x="0px" y="0px"
	 viewBox="0 0 24 24" style="enable-background:new 0 0 24 24;" xml:space="preserve">
<style type="text/css">
	.st0{display:none;}
	.st1{display:inline;}
	.st2{fill:#9E260B;}
	.st3{fill:#0068BF;}
	.st4{fill:#F1BB00;}
	.st5{fill:#272823;}
</style>
<g id="Layer_1" class="st0">
	<g id="Group_385" transform="translate(350.438 52.553)" class="st1">
		<g id="Group_375">
			<g id="Group_374">
				<g id="Group_373">
					<ellipse id="Ellipse_27" class="st2" cx="-338.4" cy="-46.5" rx="1.6" ry="5.1"/>
				</g>
			</g>
		</g>
		<g id="Group_378">
			<g id="Group_377">
				<g id="Group_376">
					<ellipse id="Ellipse_28" class="st3" cx="-344.4" cy="-40.6" rx="5.1" ry="1.6"/>
				</g>
			</g>
		</g>
		<g id="Group_381">
			<g id="Group_380">
				<g id="Group_379">
					<ellipse id="Ellipse_29" class="st4" cx="-338.4" cy="-34.6" rx="1.6" ry="5.1"/>
				</g>
			</g>
		</g>
		<g id="Group_384">
			<g id="Group_383">
				<g id="Group_382">
					<ellipse id="Ellipse_30" class="st5" cx="-332.5" cy="-40.6" rx="5.1" ry="1.6"/>
				</g>
			</g>
		</g>
	</g>
</g>
<g id="Layer_2" class="st0">
	<g id="Group_372" transform="translate(447.59 -997.907)" class="st1">
		<g id="Group_360">
			<g id="Group_359">
				<path id="Path_221" class="st3" d="M-435.6,1019c-2.6,0-4.7-2.1-4.7-4.7c0-1.4,0.7-2.8,1.8-3.7l0.6,0.7
					c-0.9,0.7-1.4,1.8-1.4,2.9c0,2,1.7,3.7,3.7,3.7c2,0,3.7-1.7,3.7-3.7c0-1.1-0.5-2.2-1.4-2.9l0.6-0.8c1.1,0.9,1.8,2.2,1.8,3.7
					C-430.9,1016.9-433,1019-435.6,1019z"/>
			</g>
		</g>
		<g id="Group_362">
			<g id="Group_361">
				<path id="Path_222" class="st3" d="M-435.6,1020.9c-3.8,0-6.8-3.1-6.8-6.8c0-2.1,0.9-4,2.5-5.3v-9.9h0.6v10
					c0,0.1-0.1,0.2-0.2,0.3c-1.5,1.2-2.4,3-2.3,4.9c0,3.4,2.8,6.2,6.2,6.2c3.4,0,6.2-2.8,6.2-6.2c0-1.9-0.9-3.7-2.3-4.9
					c-0.1-0.1-0.2-0.2-0.2-0.3v-10h0.6v9.8c1.6,1.3,2.5,3.2,2.5,5.3C-428.7,1017.8-431.8,1020.9-435.6,1020.9z"/>
			</g>
		</g>
		<g id="Group_365">
			<g id="Group_364">
				<g id="Group_363">
					<rect id="Rectangle_118" x="-438.1" y="998.9" class="st4" width="0.6" height="10.7"/>
				</g>
			</g>
		</g>
		<g id="Group_368">
			<g id="Group_367">
				<g id="Group_366">
					<rect id="Rectangle_119" x="-435.8" y="998.9" class="st4" width="0.6" height="5.5"/>
				</g>
			</g>
		</g>
		<g id="Group_371">
			<g id="Group_370">
				<g id="Group_369">
					<rect id="Rectangle_120" x="-430" y="998.9" class="st4" width="0.6" height="2.2"/>
				</g>
			</g>
		</g>
	</g>
</g>
<g id="Layer_3" class="st0">
	<g id="Group_358" transform="translate(1161.059 -479.905)" class="st1">
		<g id="Group_347">
			<g id="Group_346">
				<path id="Path_215" class="st3" d="M-1149,502.9l5.5-5.5h-11L-1149,502.9z"/>
			</g>
		</g>
		<g id="Group_349">
			<g id="Group_348">
				<path id="Path_216" class="st4" d="M-1154.5,497.4h11l-5.5-5.5L-1154.5,497.4z"/>
			</g>
		</g>
		<g id="Group_351">
			<g id="Group_350">
				<path id="Path_217" class="st3" d="M-1149,491.9l5.5-5.5h-11L-1149,491.9z"/>
			</g>
		</g>
		<g id="Group_353">
			<g id="Group_352">
				<path id="Path_218" class="st2" d="M-1160.1,486.4v11l5.5-5.5L-1160.1,486.4z"/>
			</g>
		</g>
		<g id="Group_355">
			<g id="Group_354">
				<path id="Path_219" class="st2" d="M-1138,497.4v-11l-5.5,5.5L-1138,497.4z"/>
			</g>
		</g>
		<g id="Group_357">
			<g id="Group_356">
				<path id="Path_220" class="st4" d="M-1154.5,486.4h11l-5.5-5.5L-1154.5,486.4z"/>
			</g>
		</g>
	</g>
</g>
<g id="Layer_4">
	<g id="Group_345" transform="translate(1034.022 -988)">
		<g id="Group_340">
			<g id="Group_339">
				<path id="Path_213" class="st4" d="M-1022,990.9c-6.1,0-11,4.9-11,11h22C-1011,995.8-1015.9,990.9-1022,990.9z"/>
			</g>
		</g>
		<g id="Group_342">
			<g id="Group_341">
				<circle id="Ellipse_26" class="st2" cx="-1022" cy="1001.9" r="4.5"/>
			</g>
		</g>
		<g id="Group_344">
			<g id="Group_343">
				<path id="Path_214" class="st2" d="M-1015.4,1001.9L-1015.4,1001.9c0,3.7-3,6.7-6.7,6.7l0,0c-3.7,0-6.7-3-6.7-6.7c0,0,0,0,0,0
					h-0.6c0,4,3.3,7.3,7.3,7.3h0c4,0,7.3-3.3,7.3-7.3v0H-1015.4z"/>
			</g>
		</g>
	</g>
</g>
</svg>
