<?xml version="1.0" encoding="utf-8"?>
<!-- Generator: Adobe Illustrator 24.2.3, SVG Export Plug-In . SVG Version: 6.00 Build 0)  -->
<svg version="1.1" id="Layer_1" xmlns="http://www.w3.org/2000/svg" xmlns:xlink="http://www.w3.org/1999/xlink" x="0px" y="0px"
	 viewBox="0 0 211 36" style="enable-background:new 0 0 211 36;" xml:space="preserve">
<style type="text/css">
	.st0{fill:#FFFFFF;}
</style>
<g id="Group_2" transform="translate(-145.946 -335.763)">
	<path id="Path_1" class="st0" d="M166.8,371.3c-5,0.1-9.9-1.3-14-4.2c-4.3-3.1-6.8-8.1-6.5-13.4c0-10.6,8.1-17.5,21-17.5
		c11.1,0,18.7,5.2,19.7,12.4h-9.6c-1.6-3.7-4.9-5.6-10.1-5.6c-7,0-11.3,4.1-11.3,10.7s4.4,10.7,11.3,10.7c4.9,0,8.7-2.1,10.3-5.4
		h-7.9v-6.8h17.3v18.2h-6.6l-0.5-3.7C176.4,369.8,172.2,371.3,166.8,371.3z"/>
	<path id="Path_2" class="st0" d="M189.7,337.1H201l11.3,23.9l11.6-23.9h11.2v33.3h-8.4v-22.3l-10.9,22.3h-7.3l-10.4-22.6v22.6h-8.4
		L189.7,337.1z"/>
	<path id="Path_3" class="st0" d="M238.2,337.1h20.8c8.2,0,12.9,4.3,12.9,11.4s-4.8,11.5-12.9,11.5h-12v10.5h-8.8V337.1z M255,353.1
		c5.4,0,8-0.9,8-4.5c0-3.8-2.2-4.7-7.4-4.7h-8.6v9.2H255z"/>
	<path id="Path_4" class="st0" d="M280.2,337.1h14.3c8.6,0,12.9,3.1,12.9,9.8s-4.3,9.8-12.9,9.8h-10.8v13.7h-3.5V337.1z
		 M293.8,353.5c6.8,0,9.8-1.3,9.8-6.7s-3.1-6.7-9.8-6.7h-10.1v13.3H293.8z"/>
	<path id="Path_5" class="st0" d="M310.6,370.4V346h3.4v4.1c1.4-3,4.4-4.9,7.7-4.9c1.2,0,2.3,0.2,3.4,0.7v3.1c-1-0.3-2-0.4-3-0.5
		c-4,0-6.7,2.1-8.1,6.2v15.8H310.6z"/>
	<path id="Path_6" class="st0" d="M351.9,345c-1.6,0.4-4.1,0.9-6.8,1.6c0.4,0.2,0.8,0.4,1.2,0.7C348.1,346.4,349.9,345.7,351.9,345z
		"/>
	<path id="Path_7" class="st0" d="M326.4,361.6c-0.2-9,10.5-12.9,18.6-15c-2-1-4.3-1.6-6.6-1.6c-7.8,0-14.1,6-14.1,13.4
		c0,4.3,2.1,8.3,5.6,10.7C327.8,367.3,326.5,364.5,326.4,361.6z"/>
	<path id="Path_8" class="st0" d="M346.2,347.3c-5.7,2.7-13.6,7.6-12.7,14.1c1,7.7,11.5,8.9,11.5,8.9c0,0,0,0,0,0
		c6.5-3.1,9.4-10.8,6.3-17.4C350.2,350.6,348.4,348.7,346.2,347.3L346.2,347.3z"/>
	<path id="Path_9" class="st0" d="M352,346.8l3.5-3.1l-4.5-0.1l1.3,1.3L352,346.8z"/>
	<g id="Group_1" transform="translate(352.64 336.64)">
		<path id="Path_10" class="st0" d="M4,2.1c0.1,1-0.7,1.9-1.7,2s-1.9-0.7-2-1.7C0.3,1.4,1,0.5,2,0.5c0.1,0,0.1,0,0.2,0
			C3.1,0.4,3.9,1.2,4,2.1C4,2.1,4,2.1,4,2.1z M0.8,2.1c0,0.7,0.6,1.4,1.3,1.4c0,0,0,0,0,0c0.7,0,1.3-0.6,1.4-1.3c0,0,0,0,0,0
			c0-0.8-0.6-1.4-1.4-1.4S0.8,1.4,0.8,2.1L0.8,2.1L0.8,2.1z M1.9,3H1.5V1.3c0.2,0,0.5,0,0.7-0.1c0.2,0,0.4,0,0.6,0.1
			c0.1,0.1,0.2,0.2,0.2,0.4c0,0.2-0.2,0.4-0.4,0.4v0c0.2,0.1,0.3,0.2,0.3,0.4C2.9,2.7,3,2.9,3,3H2.6C2.5,2.9,2.5,2.7,2.4,2.6
			c0-0.2-0.1-0.3-0.4-0.3H1.9L1.9,3z M1.9,2.1h0.2c0.2,0,0.4-0.1,0.4-0.2c0-0.2-0.1-0.3-0.4-0.3c-0.1,0-0.2,0-0.2,0L1.9,2.1z"/>
	</g>
</g>
</svg>
