<svg xmlns="http://www.w3.org/2000/svg" xmlns:xlink="http://www.w3.org/1999/xlink" width="221.587" height="177.669" viewBox="0 0 221.587 177.669">
  <defs>
    <clipPath id="clip-path">
      <rect id="Rectangle_632" data-name="Rectangle 632" width="220" height="176" transform="translate(-0.415 -0.331)" fill="none" stroke="#fff" stroke-width="1"/>
    </clipPath>
  </defs>
  <g id="Group_1249" data-name="Group 1249" transform="translate(0.677 0.741)">
    <path id="Path_137" data-name="Path 137" d="M0,0H219.587V175.669H0Z" transform="translate(0.323 0.259)" fill="#fff" stroke="#707070" stroke-width="2" opacity="0"/>
    <g id="Group_1248" data-name="Group 1248" transform="translate(0.323 0.259)">
      <g id="Group_1247" data-name="Group 1247" transform="translate(0 0)" clip-path="url(#clip-path)">
        <path id="Path_136" data-name="Path 136" d="M177.206,914.809l77.778.868c-.039-2.393-.077-4.786-.367-7.864a65.813,65.813,0,0,0-2.141-11.613c-1.312-4.774-3.4-10.561-5.15-15.258s-3.183-8.3-4.205-10.725a27.162,27.162,0,0,0-2.276-4.6,12.824,12.824,0,0,0-1.919-2.2c-.627-.6-1.225-1.138-1.823-1.678.038,7.041.077,14.081.048,20.592s-.125,12.49.029,16.444a52.066,52.066,0,0,0,.945,8.159c.386,2.276.752,4.9,1.119,7.523l14.93.174a5.552,5.552,0,0,1,.453-2.913c.453-.637,1.36-.772,4.446-.646s8.352.511,13.069,1.071a100.806,100.806,0,0,1,11.786,2.016c2.9.723,4.543,1.437,5.343,2.209a2.151,2.151,0,0,1,.607,2.228c-.154.627-.424,1.051-1.91.878s-4.186-.945-7.031-1.543-5.835-1.022-8.95-1.4-6.356-.7-9.037-.82-4.8-.019-6.925.077c-.058-2.353-.116-4.707,1.408-5.613s4.63-.367,7.523.116,5.574.907,6.568.916.3-.4-.511-1.051a11.642,11.642,0,0,1-2.72-3.183,43.415,43.415,0,0,1-3.1-6.78c-1.07-2.826-2.17-6.144-3.482-10.387s-2.836-9.413-3.636-13.02a20.218,20.218,0,0,1-.617-7.513,13.287,13.287,0,0,1,1.6-4.8,34.627,34.627,0,0,0,2.218-3.433h0a11.329,11.329,0,0,0,.22-8.319,4.739,4.739,0,0,1-1.144,1.247c-.657.632-1.327,1.25-2,1.869a26.618,26.618,0,0,0-3.846,4.18,28.778,28.778,0,0,0-4.228,8.966c-.442,1.566-.753,3.155-1.091,4.744-.271,1.277-1.093,3.4-.583,4.693.6-.58.709-2.21.919-2.987.282-1.045.572-2.088.891-3.123a45.865,45.865,0,0,1,2.815-7.134,53.044,53.044,0,0,1,7.624-11.16c.765-.866,1.581-1.687,2.332-2.565.525-.614.922-1.177,1.812-1.106a5.59,5.59,0,0,1,2.125.983,32.8,32.8,0,0,1,3.241,2.154,42.73,42.73,0,0,1,4.585,3.914,8.555,8.555,0,0,1,1.921,2.448c.291.714.032,1.125-.734.771-1.554-.719-2.946-2.258-4.228-3.341a56.823,56.823,0,0,0-5.356-4.111c-1.152-.758-2.86-1.468-1.377-2.848.5-.463,1.072-.795,1.529-1.308a7.084,7.084,0,0,0,1.7-3.635,22.264,22.264,0,0,0-.325-5.944,22.644,22.644,0,0,1,.208-7.3c.674-3.285,2-8.32,5.245-10.047,1.113-.591,2.482-.614,3.665-1.054a8.368,8.368,0,0,1,2.87-.637,16.223,16.223,0,0,1,7.012,1.6c2.48,1.153,4.978,2.483,7.378,3.8.668.365,1.034.964,1.716,1.286.5.236,2.1.481,1.639,1.339.507.539,1.343.513,1.578,1.351a3.369,3.369,0,0,1-.563,2.238c-.359.7-1.775,3.309-2.859,2.887a3.368,3.368,0,0,1,.061-.584c-.613.489-.563,1.658-.655,2.378a28.464,28.464,0,0,1-.973,4.206,6.58,6.58,0,0,0,.2,3.539c.222.852.893,2.326.483,3.206-.324.7-1.279.593-1.886.862a4.029,4.029,0,0,0-1.764,2.321,11.309,11.309,0,0,0-1.14,3.1c-.139.97-.1,2.028-.937,2.7-1.663,1.347-4.177-.194-5.61-1.16a16.525,16.525,0,0,1-5.067-4.9c-1.424-2.36-.878-4.314.4-6.579a5.407,5.407,0,0,1,1.489-2.128c.845-.505,1.734-.435,2.434-1.239.759-.872,1.007-2.116,1.879-2.9.963-.864,2.392-1.14,3.444-1.9.789-.574,1.471-1.833,2.437-2.082,1.412-.364,2.91.88,4.352.236-.493.22-2.878-.15-3.708.063a11.814,11.814,0,0,0-5.236,2.959c-1,.98-1.967,1.957-3.022,2.884-.921.809-1.606,1.993-2.677,2.6a4.654,4.654,0,0,1-2.936.736c-1.054-.276-1.38-1.614-1.573-2.535-.355-1.692-.434-4.608,1.787-5.033,2.9-.553,2.888,3.655,1.736,5.232-.822,1.124-1.689.947-2.859.622-1.207-.335-1.678.389-2.25,1.347a7.033,7.033,0,0,1-2.407,2.46c-1.05.634-2.463.737-3.371,1.58a6.166,6.166,0,0,0-1.748,3.319c-.127,1.516,1.21,2.569,2.284,3.409,1.326,1.038,2.625,2.053,3.879,3.181,1.069.961,2.43,2.611,3.939,2.833,1.553.228,2.293-1.47,2.938-2.563a5.01,5.01,0,0,1,1.047-1.289c.27-.243.832-.632.793-1-1.343-.307-2.451,2.207-2.858,3.152-.88,2.046-.181,4.451.37,6.5.649,2.407,1.45,4.753,1.893,7.214a55.5,55.5,0,0,1,.8,7.982c.085,2.539.039,5.082-.072,7.62-.087,2-.866,4.554-.087,6.459a12.749,12.749,0,0,1,.856,2.237c.164.758.281,1.344,1.144,1.213a2.2,2.2,0,0,1,1.966.382c.218.166,1.152,1.007.531,1.124-.706-1.142,3-.254,3.268-.2,1.761.372,3.533.689,5.3,1.024,3.413.647,6.882,1.465,10.381,1.253,3.358-.2,6.306-1.612,9.5-2.469a9.5,9.5,0,0,1,4.469.072c.712.145,1.424.292,2.138.43.5.1,1.27.086,1.578.561-.8.551-2.374-.154-3.285-.2a11.19,11.19,0,0,0-3.925.735,49.083,49.083,0,0,1-7.7,2.107,34.908,34.908,0,0,1-8.729-.008q-2.2-.227-4.383-.583c-.632-.1-1.28-.2-1.9-.361-.431-.114-1.094-.538-1.5-.184-.179.841.741,1.807.983,2.577a8.043,8.043,0,0,1,.107,3.446,8.387,8.387,0,0,1-1.852,4.6c-1.285,1.361-3.162,1.129-4.859,1.425-.705.123-2.9.611-2.5-.786.374-1.292,2.322-1.835,3.057-2.942a7.9,7.9,0,0,0,.836-5.07c-.1-1.051-1.321-3.705.036-4.3.465-.2,3.275-.248,3.067.632-1.015.307-2.541-.355-3.533-.573a25.56,25.56,0,0,1-3.123-.771,5.384,5.384,0,0,1-2.448-1.746,14.263,14.263,0,0,1-1.55-2.865,12.985,12.985,0,0,1-.937-3.229c-.313-1.333-.757-2.637-1.118-3.959a79.331,79.331,0,0,1-1.8-8.161c-.781-4.794-.92-10.477-3.726-14.636-2.564-3.8-8-4.867-11.337-1.411-2.886,2.988-3.043,7.441-2.509,11.324a58.041,58.041,0,0,0,1.334,6.239,45.384,45.384,0,0,0,2.45,7.621,14.708,14.708,0,0,0,1.845,3.234,4.684,4.684,0,0,0,1.1.988c.371.245,1.048.471,1.287.868.617,1.026-2.392,2.357-.185,2.826.7.149,1.75-.623,2.326.01.61.67-.4,2.122-.635,2.812a8.869,8.869,0,0,0,.6,6.456,12.1,12.1,0,0,0,5,5.6,12.632,12.632,0,0,0,7.343,1.051c2.3-.251,5.063-.652,7.061-1.868a4,4,0,0,0,2.007-2.821c.083-.526.228-2.228-.514-2.365-.623.437-.6,1.568-.689,2.232a6.719,6.719,0,0,1-.924,2.318c-.661,1.266-.317,1.9,1.093,1.958a20.45,20.45,0,0,0,3.436-.36c2.994-.389,5.924-1.128,8.867-1.782,2.415-.536,5.145-1.673,7.6-.914,2.93.905,5.5-.01,8.244-1.116a14.435,14.435,0,0,1,4.337-1.4,16.15,16.15,0,0,1,3.931.431c1.162.256,1.372,1.074,2.133,1.844s1.828.567,1.816-.635a5.129,5.129,0,0,0-1.31-2.716c-.826-1.044-1.808-1.016-2.9-1.579,1.814-.157,3.01,1.651,3.682,3.067.18.379.468,1.5,1.058,1.431.847-.107.344-1.44.159-1.828.146.379.39.855.841.91,1.023-.831-2.053-3.969-2.65-4.7a9.043,9.043,0,0,0-2.227-2.217c-.139-.079-.751-.423-.891-.121-.2.443,1.172,1.187,1.435,1.37a21.245,21.245,0,0,1,3.7,3.874c1.04,1.193,2.285,1.44,3.774,1.765,2.007.438,4.019.854,6.03,1.273.588.123,4.362.379,4.588,1.149-.6.594-1.885.426-2.654.5-1.3.121-2.6.308-3.9.406a49.23,49.23,0,0,1-7.814-.031,68.55,68.55,0,0,1-7.815-1.212c-1.12-.227-2.244-.447-3.351-.734-.55-.143-2.078-.8-2.514-.184.37.6,1.361.678,1.99.826.889.209,1.77.445,2.656.669,2.23.564,4.483,1.067,6.755,1.428a40.645,40.645,0,0,0,6.327.522c2.341,0,4.652-.361,6.983-.405a4.811,4.811,0,0,1,2.231.549,2.326,2.326,0,0,0,1.553.285.668.668,0,0,0,.131-1.278c-.654-.359-1.277.354-.563.743,1.21.66,1.533-1.716.457-2.3a6.4,6.4,0,0,0-1.821-.446c-1.256-.247-2.506-.534-3.769-.745-.635-.106-3.891-.217-3.713-1.29.153-.919,3.6-.98,4.134-1.036,2.135-.221,4.275-.376,6.413-.55,1.1-.089,2.192-.186,3.285-.315a8.494,8.494,0,0,0,3.115-.609c1.411-.84,1.2-3.118,1.263-4.521.036-.847.006-1.433,1.009-1.389.933.041,1.9.316,2.83.439,1.777.237,3.56.549,5.349.673a5.03,5.03,0,0,1,2.02.295c.763.427.61,1.255.642,2.059.043,1.115-.456,3.706,1.052,4.012,1.452.3,3.041-.367,4.533-.129.395.063,1.787.382,1.741,1.044s-1.673.41-2.1.429c-2.486.114-4.969.287-7.456.4,2.731-.12,5.464-.225,8.193-.386.684-.04,1.581-.184,1.38.859s-1.607.559-2.344.5c-2.9-.22-5.8-.26-8.689-.655-1.234-.168-2.462-.388-3.7-.515-.764-.078-2.29.021-2.786-.674.862-.537,2.551.14,3.461.312,1.4.265,2.818.467,4.223.725,1.086.2,2.77.289,3.56,1.141a.962.962,0,0,1-.4,1.589,4.762,4.762,0,0,1-2.615.113c-2.175-.271-4.339-.618-6.511-.894-.724-.092-2.057-.236-1.559-1.331.516-1.133,2.107-.689,3.013-.5a56.236,56.236,0,0,0,9.036,1c1.415.054,2.812-.2,4.214-.183,1.145.013,1.309.89,1.076,1.933-.209.935-.819.772-1.664.722-.99-.059-2.607.343-3.451-.269.278-.574,1.582-.269,2.061-.263a17.247,17.247,0,0,1,2.436-.154c.872.138.856.528.776,1.319v0c-.224,2.229-.15,2.454-2.544,2.494-.622.01-1.244-.022-1.866-.052-3.056-.146-6.048-.52-9.083-.877a19.824,19.824,0,0,1-3.952-.7c-.58-.192-.83-.206-.983-.744a2.933,2.933,0,0,0,.1-.859,1.779,1.779,0,0,1-.072-.959c.664-.412,1.975.01,2.68.118.989.151,1.983.268,2.973.415a44.7,44.7,0,0,1,5.043.881c.707.191,2.782,1.443,1.157,1.917a6.819,6.819,0,0,1-2.306-.05c-1.049-.1-2.092-.254-3.134-.406-.96-.14-1.918-.286-2.878-.428a9.516,9.516,0,0,1-2.318-.3c-.751-.347-.557-.992-.884-1.621s-.812-.711-1.478-.763c-.916-.071-7.543.5-7.663-1.074.58-.45,1.478-.194,2.136-.1.986.144,1.97.3,2.952.475-2.357-.389-4.705-.828-7.058-1.238-1.1-.192-2.2-.379-3.3-.555a24.5,24.5,0,0,1-3.829-.6c.263-.879,2.764-.782,3.468-.839,2.176-.175,4.35-.418,6.524-.622,2.625-.245,6.593.27,7.131-3.106.114-.714.164-1.435.282-2.15.095-.577.354-1.43-.2-1.863-.381-.3-1.079-.2-1.519-.223-1.17-.061-2.344-.217-3.51-.334-4.132-.418-8.26-.875-12.388-1.329-4.05-.445-8.109-.828-12.146-1.379a23.312,23.312,0,0,1-4.882-.815c-1.913-.717-1.265-2.882-1.1-4.483.866-8.526,2.06-17.035,3.13-25.538.515-4.1,1.08-8.187,1.561-12.287.222-1.893.431-3.788.751-5.667.236-1.388.312-3.527,1.627-4.39a5.322,5.322,0,0,1,2.475-.557c.969-.083,1.936-.193,2.9-.293q3.165-.327,6.331-.645,6.325-.643,12.651-1.277c8.249-.842,16.5-1.579,24.756-2.308,1.09-.1,2.555-.467,3.534.208,1.313.906.661,3.76.571,5.082-.283,4.16-.653,8.316-.992,12.472-.768,9.405-1.474,18.81-2.057,28.229a125.4,125.4,0,0,1-1.395,14.066c-.215,1.218-.354,2.912-1.754,3.329a7.288,7.288,0,0,1-2.7-.082c-1.289-.124-2.585-.219-3.877-.3a9.859,9.859,0,0,0,4.188-.082c1.623-.523,2.376-2.014,2.759-3.578,1-4.076,1.064-8.406,1.431-12.57q1.321-14.884,2.628-29.769c.37-4.128.763-8.256,1.052-12.391.047-.676.65-3.352-.157-3.874-.269-.174-.842-.074-1.135-.066-1.305.036-2.611.163-3.912.274-4.092.349-8.178.761-12.265,1.167q-8.549.849-17.095,1.725l-9.905,1.012-4.739.485a7.536,7.536,0,0,0-2.873.628c-.032,1.528-.323,3.122-.487,4.65l-1.14,10.63-2.579,24.041-.429,4a6.231,6.231,0,0,1-.22,1.673c8.6,1.169,17.344,1.735,25.99,2.535,8.546.791,16.937,1.5,25.328,2.218" transform="translate(-169.505 -784.405)" fill="none" stroke="#fff" stroke-linecap="round" stroke-linejoin="round" stroke-width="2"/>
      </g>
    </g>
  </g>
</svg>
